<?xml version="1.0" encoding="iso-8859-1"?>
<!-- Generator: Adobe Illustrator 18.0.0, SVG Export Plug-In . SVG Version: 6.00 Build 0)  -->
<!DOCTYPE svg PUBLIC "-//W3C//DTD SVG 1.1//EN" "http://www.w3.org/Graphics/SVG/1.1/DTD/svg11.dtd">
<svg version="1.1" id="Layer_1" xmlns="http://www.w3.org/2000/svg" xmlns:xlink="http://www.w3.org/1999/xlink" x="0px" y="0px"
	 viewBox="0 0 457.999 663.014" style="enable-background:new 0 0 457.999 663.014;" xml:space="preserve">
<path style="fill-rule:evenodd;clip-rule:evenodd;" d="M455.437,112.949c-0.106,0.216-0.228,0.428-0.345,0.641
	c-0.133,0.238-0.244,0.485-0.386,0.718c-0.041,0.067-0.092,0.124-0.133,0.19c-0.029,0.047-0.051,0.096-0.081,0.142l-82.196,128.654
	c5.212,15.784,7.273,32.555,5.893,49.299c9.431,0.141,17.044,7.721,17.044,17.06c0,9.424-7.754,17.073-17.309,17.073
	c-0.681,0-1.319,0.012-1.975,0.02c-0.764,0.45-1.559,0.865-2.41,1.203c-5.466,2.219-121.755,51.81-130.921,240.884
	c67.223,5.697,101.319,21.219,101.319,46.161c0,44.552-111.986,48.02-146.309,48.02c-34.315,0-146.289-3.467-146.289-48.02
	c0-30.59,52.239-42.125,101.216-46.197C143.139,378.133,22.992,328.462,21.726,327.97c-0.872-0.343-1.686-0.764-2.467-1.224
	c-0.648-0.007-1.278-0.019-1.951-0.019C7.752,326.727,0,319.078,0,309.653c0-9.427,7.752-17.073,17.308-17.073
	c3.168,0,6.15,0.07,8.965,0.2c-9.653-41.231,2.219-84.326,32.638-115.356c5.472-5.573,11.4-10.578,17.689-15.005
	c-7.962-43.148,22.017-61.769,46.541-76.989c4.237-2.623,8.62-5.334,13.027-8.268c9.273-6.203,13.701-11.872,14.772-18.986
	c0.531-4.202-0.348-22.032-6.321-32.412c-2.873-5.004-3.009-11.095-0.351-16.229c2.672-5.113,7.766-8.559,13.556-9.183
	C187.023-2.56,226.676,12.89,250.148,36.7c12.069,12.242,19.148,25.801,20.945,39.844c3.226,8.417,13.005,27.193,26.349,29.251
	c21.833,3.395,36.531,11.777,46.329,20.666l37.183-56.281c0.055-0.083,0.119-0.155,0.174-0.237
	c3.281-4.926,8.427-8.503,14.667-10.078c10.491-2.645,23.888,0.178,36.846,7.781c12.938,7.558,21.885,17.829,24.532,28.167
	C458.716,101.812,458.076,107.838,455.437,112.949z M187.778,592.808c0,9.427-7.752,17.073-17.308,17.073
	c-5.784,0-10.893-2.811-14.036-7.112c-32.069,2.662-52.646,7.906-63.402,12.225c15.968,6.292,52.073,13.873,104.596,13.873
	c52.465,0,88.559-7.558,104.548-13.85c-10.737-4.27-31.3-9.547-63.436-12.231c-3.145,4.291-8.248,7.095-14.023,7.095
	c-9.557,0-17.308-7.647-17.308-17.073c0-132.344,47.233-209.128,89.287-251.277c-2.822,0.13-5.811,0.2-8.988,0.2
	c-25.388,0-38.799-4.469-50.631-8.402c-10.66-3.535-19.865-6.602-39.586-6.602c-19.697,0-28.893,3.066-39.542,6.602
	c-11.82,3.934-25.229,8.402-50.608,8.402c-3.12,0-6.056-0.068-8.833-0.194C140.556,383.687,187.778,460.47,187.778,592.808z
	 M292.067,139.541c-13.577-2.106-24.22-9.08-32.374-17.361c-7.575,9.142-18.064,13.406-29.59,17.138
	c-9.061,2.934-18.852-1.955-21.839-10.916c-2.975-8.958,1.971-18.605,11.066-21.54c14.232-4.603,15.718-5.07,17.341-19.564
	c1.242-9.026-2.592-17.918-11.336-26.789c-10.883-11.027-26.83-19.206-41.208-23.343c1.881,11.605,1.689,21.831,1.048,26.077
	c-2.536,16.764-12.227,30.591-29.637,42.217c-4.743,3.157-9.42,6.069-13.962,8.871c-20.2,12.537-30.286,19.484-31.704,31.337
	c10.886-3.606,22.303-5.783,34.002-6.371c9.736-0.446,17.682,6.757,18.167,16.183c0.485,9.404-6.852,17.428-16.397,17.918
	c-13.047,0.655-25.622,4.005-37.045,9.713c-1.822,1.731-4.044,3.107-6.609,3.936c-0.288,0.093-0.576,0.165-0.864,0.242
	c-6.259,3.887-12.088,8.526-17.346,13.875c-24.744,25.255-32.655,61.492-20.632,94.55c0.482,1.325,0.767,2.671,0.907,4.012
	c1.292,0.421,2.557,0.841,3.803,1.256c10.627,3.535,19.81,6.602,39.484,6.602c7.679,0,13.75-0.47,18.945-1.248
	c-8.116-40.821,4.702-83.073,34.997-112.907c24.026-23.743,55.994-36.815,90.001-36.815c22.082,0,43.293,5.543,62.054,15.907
	l11.013-16.67C319.456,149.705,310.002,142.329,292.067,139.541z M316.881,217.571c-2.469-2.434-5.063-4.696-7.747-6.817
	c-0.097-0.06-0.201-0.1-0.298-0.163c-0.957-0.614-1.826-1.31-2.615-2.066c-15.839-11.533-34.898-17.764-54.934-17.764
	c-24.744,0-48.025,9.516-65.525,26.81c-21.386,21.048-30.823,50.604-26.017,79.452c9.334-2.474,20.904-4.443,37.748-4.443
	c25.4,0,38.819,4.466,50.651,8.402c10.66,3.535,19.856,6.602,39.565,6.602c19.709,0,28.903-3.066,39.562-6.602
	c4.74-1.577,9.737-3.238,15.655-4.664C347.411,267.701,337.842,238.219,316.881,217.571z M414.973,96.991
	c-3.332-1.953-6.141-2.966-8.125-3.474l-65.814,99.619c0.102,0.1,0.21,0.192,0.312,0.293c4.62,4.549,8.825,9.419,12.624,14.539
	l67.677-105.923C420.235,100.62,418.077,98.815,414.973,96.991z"/>
</svg>
